<svg viewBox="0 0 24 24" fill="none" xmlns="http://www.w3.org/2000/svg">
  <path
    d="M12 13C12.8284 13 13.5 12.3284 13.5 11.5C13.5 10.6716 12.8284 10 12 10C11.1716 10 10.5 10.6716 10.5 11.5C10.5 12.3284 11.1716 13 12 13Z"
    stroke="#ffffff" stroke-width="2" stroke-linecap="round" stroke-linejoin="round" />
  <path d="M16.5 7C17.7 8.2 18.5 9.8 18.5 11.5C18.5 13.2 17.7 14.8 16.5 16" stroke="#ffffff" stroke-width="2"
    stroke-linecap="round" stroke-linejoin="round" />
  <path d="M7.5 7C6.3 8.2 5.5 9.8 5.5 11.5C5.5 13.2 6.3 14.8 7.5 16" stroke="#ffffff" stroke-width="2"
    stroke-linecap="round" stroke-linejoin="round" />
  <path d="M19.5 4C21.3 5.8 22.5 8.3 22.5 11.5C22.5 14.7 21.3 17.2 19.5 19" stroke="#ffffff" stroke-width="2"
    stroke-linecap="round" stroke-linejoin="round" />
  <path d="M4.5 4C2.7 5.8 1.5 8.3 1.5 11.5C1.5 14.7 2.7 17.2 4.5 19" stroke="#ffffff" stroke-width="2"
    stroke-linecap="round" stroke-linejoin="round" />
</svg>